<?xml version="1.0" encoding="UTF-8" standalone="no"?><svg xmlns:rdf="http://www.w3.org/1999/02/22-rdf-syntax-ns#" xmlns="http://www.w3.org/2000/svg" height="360.99414" width="265.87445" version="1.1" xmlns:cc="http://creativecommons.org/ns#" xmlns:dc="http://purl.org/dc/elements/1.1/" viewBox="0 0 265.87445 360.99414"><path d="M136.93185,137.24591,17.70406,105.297,136.93185,360.98735,256.16821,105.297Z"/><path d="M136.93185,137.24591,17.69774,105.297,136.93185,360.99414,256.16821,105.297ZM124.48634,249.368l3.077-40.33431h7.70792l-.282,36.21672h3.88069l-.282-36.21672h7.70723l3.07747,40.33431H124.48634Zm13.81955-76.74531H143.52l2.34872,30.74565H128.0022l2.35008-30.74565h5.21455l-.20756,26.42048H138.518l-.20756-26.42048ZM123.916,143.81351,70.23975,201.03763,58.03816,174.87256ZM55.4936,169.41409,44.821,146.521l77.19611-4.85064L55.49992,169.41409Zm69.77611-23.04361-37.4324,92.40684L73.00339,206.96471Zm2.4191,1.15315L111.45107,289.41352,91.34686,246.29728l36.348-98.77365Zm18.48675,0,36.34985,98.77365-20.10513,43.11624Zm2.41865-1.15315,52.26744,60.59423L186.027,238.77732Zm1.35373-2.557,65.87917,31.059-12.20158,26.16507Zm1.91327-2.14949,77.19409,4.85064-10.67188,22.89312L151.86572,141.664Zm5.91579-2.60074,85.42477-22.8868-11.41871,24.49121L157.777,139.0696Zm-21.99808,5.27685L135.63,163.36632h2.59915l-.14891-19.02619.69493-.18818,2.50665-.67054,1.85461,24.27821h-12.427l1.85507-24.27821,2.506.67054.69719.18818Zm-19.68387-5.27685-74.0063,1.59809-11.41846-24.4912L116.09505,139.057Zm3.92918,168.73612,3.9671-51.94482H134.908l-.53923,68.91607,2.56306,5.49611,2.56306-5.49611-.53925-68.91607h10.91783l3.96641,51.94482-16.90805,36.26184Z" fill="#b896d4"/><path d="M16.576,70.69732,10.3655,36.66166H0L12.99759,95.23228,21.46426,97.407,32.024,36.66166H22.36674Z" fill="#b896d4"/><path d="M41.44325,36.66166,35.12,42.98493v58.14465l9.96434,2.66954v-29.373l7.27584.965v30.35711l9.96456,2.66979V36.66166ZM45.08433,65.809V46.626l1.34741-1.34109h5.92843v21.4893Z" fill="#b896d4"/><path d="M78.68138,36.66166H68.71682V110.135l20.8,5.57127v-8.924l-10.83546-2.90173Z" fill="#b896d4"/><path d="M195.30911,112.74839l9.96344-2.66977v-73.417h-9.96344Z" fill="#b896d4"/><path d="M211.60349,108.38037l21.74538-5.82193V93.63421l-11.78194,3.15847V74.47625l9.89575-1.32868V64.61209l-9.89575,1.32236V45.28491h11.78194V36.66166H211.60349Z" fill="#b896d4"/><path d="M265.87445,51.84643V36.66166H245l-6.32418,6.32958V61.01478L255.911,72.87818V86.24556l-1.29732,1.69194-5.9722,1.59807V74.85236l-9.96571,1.89883v24.37839L260.60393,95.27l5.27052-7.9967V67.65775l-17.233-11.85708V46.626l1.34017-1.34109H255.911v6.56152Z" fill="#b896d4"/><path d="M104.80811,119.77988V81.58918h.71453l6.56153,4.58125V121.7288l9.96433,2.66978V82.61689l-7.51409-5.30165,7.51409-5.22043V36.66166h-9.96433V68.54151l-6.40493,4.42443h-.87113V36.66166H94.84376v80.44845Z" fill="#b896d4"/><path d="M136.93185,128.39073l9.96569-2.66979V82.29741l8.61648-5.85329V36.66166h-9.95893v36.066l-3.64152,2.61337-3.63476-2.61337v-36.066h-9.96344V76.44412l8.61648,5.85329Z" fill="#b896d4"/><path d="M171.74522,119.05925V81.58287h.70844l6.56108,4.58756v30.93968l9.95893-2.66956V82.6108L181.465,77.30893l7.50868-5.22043V36.65534H161.775V121.7227l9.96342-2.66977Zm0-73.77434h7.27629v23.2566l-6.40539,4.43075h-.8709Z" fill="#b896d4"/><path d="M38.33487.01263H48.951V8.0531H43.88741v-3.66H40.87288l-.683.68319V23.77665h3.0143l.68318-.683V16.25647H42.03867V11.8758h6.91867V24.94244l-3.2151,3.21488H35.12608V3.22751L38.34118.01263Z" fill="#b896d4"/><path d="M64.14843,28.16364H53.53205V3.23383L56.74714.01873H67.3633v24.93ZM61.61651,23.783l.683-.683V4.39939h-3.0143l-.68317.68318V23.783Z" fill="#b896d4"/><path d="M77.01426,23.77665h5.99138v4.38067H71.94433V.00632h5.06993Z" fill="#b896d4"/><path d="M101.4177,24.94876l-3.21489,3.21488H87.58665V.01263H98.20281l3.21489,3.21488ZM95.66479,23.783l.683-.683V5.08257l-.683-.68318H92.65027V23.783Z" fill="#b896d4"/><path d="M117.0537,4.39307h-5.99115v7.47642h5.21412v4.38066h-5.21412v7.52041h5.99115V28.151H105.99262V0H117.0537Z" fill="#b896d4"/><path d="M138.24271,28.16364h-6.47422l-5.0636-16.32551V28.16364H121.635V.01263h6.47375l5.06881,16.32529V.01263h5.0652Z" fill="#b896d4"/><path d="M160.76648,8.0592V4.39939h-3.0143l-.68364.68318V9.82649l8.76765,5.9097v9.20625l-3.21509,3.21488H152.00335V20.11685h5.072v3.6598h3.0143l.68138-.683V18.431l-8.76765-5.9097V3.23383l3.2151-3.2151h10.61774V8.0592Z" fill="#b896d4"/><path d="M183.40082,4.39939h-4.46054V28.16364h-5.0697V4.39939h-4.30712V.01873h13.83285V4.39939Z" fill="#b896d4"/><path d="M190.359.01263h10.61549v28.151h-5.063V16.26279h-3.69793V28.16364h-5.06972V3.23383L190.359.01873Zm5.55254,11.86317V4.39939h-3.05943l-.64527.6455v6.83723h3.69793Z" fill="#b896d4"/><path d="M218.54585,4.39939H214.0853V28.16364h-5.0697V4.39939h-4.3071V.01873h13.83284V4.39939Z" fill="#b896d4"/><path d="M233.34887,4.39307h-5.99024v7.47642h5.21408v4.38066h-5.21408v7.52041h5.99024V28.151h-11.06V0h11.06Z" fill="#b896d4"/></svg>