<svg xmlns="http://www.w3.org/2000/svg" viewBox="0 0 2500 2500">
<g>
	<path fill="#D2AA41" fill-rule="evenodd" clip-rule="evenodd" d="M1868.2,2108.5H1565l-4.6,22.8h316.4l28.2-79.8h-16.6L1868.2,2108.5z M1878,1894.8l-129.4,0.4l-30,133.5h13.7
		l24.3-108.2l130-2.8l35.6-88.3h-17.8L1878,1894.8L1878,1894.8z M1969.7,1621.4l-26.7,68.4h-150.8l-25.8,116.8h13.6l20.7-94h150.8
		l35.6-91.1L1969.7,1621.4L1969.7,1621.4z M1345.7,1716.7h50.1c0,0,24.3,2.7,37.4,29.1c0.5-65.2-45.6-70.3-45.6-70.3h-50.1
		l-32.1,158.6h16.5L1345.7,1716.7L1345.7,1716.7z M1294.8,1880.6c-11,54.6-47.6,236-47.6,236h-136.9l-3.9,18.5l151.4,2.6l45.3-228.2
		C1299.6,1899.8,1297.5,1888.1,1294.8,1880.6z M1360.3,2113.8l7.9,21.4h159.3l-6.8-21.4H1360.3L1360.3,2113.8z M1591.4,1713.3
		c-9.6,121.7-113.8,162-156.7,175.8c2.2,6.8,6.8,22,9.8,31.3c35.3-9.7,146.1-59.6,152.4-158
		C1598.1,1743.5,1596,1727.2,1591.4,1713.3L1591.4,1713.3z M839.2,1897H715.9l-42.1,216.8H534.5l-4,20h151.4l42.1-216.8h126.3
		l31.8-82h-18.9L839.2,1897z M907.9,1693.5H758.4c-3.1,13.3-17,72-23.1,97.8c3.6,0,7.6,3.8,12.9,3.8l19-81.6h151.4l30.7-87.2h-17.7
		L907.9,1693.5L907.9,1693.5z"/>
	<path fill-rule="evenodd" clip-rule="evenodd" d="M590.3,1572.1l13.7,50.2l-91,457.3h151.4l42.1-216.8h126.3l31.8-82H721.2l28.5-121.6H901l30.7-87.2
		L590.3,1572.1L590.3,1572.1z M953.3,1572.1h176.4l-104.4,508l-152.9-0.5l95.6-460L953.3,1572.1L953.3,1572.1z M1408.6,1572.1
		h-240.1l13.7,50.2l-95.6,457.4l151.4,2.6l39.5-195.4l70.9,192.8h159.3l-70.4-219c0,0,131.9-29.5,139.8-153.8
		C1585,1582.7,1450.7,1574.7,1408.6,1572.1L1408.6,1572.1z M1420,1725.4c-2.3,68.7-75.1,84.6-95.6,84.6h-32.1l32.1-158.6h50.1
		C1374.4,1651.4,1422.2,1656.7,1420,1725.4L1420,1725.4z M1618.7,1570.2l14.7,48.4l-93.2,461.4h316.4l28.2-79.8h-177.8l29.4-131
		l130-2.9l35.6-88.3h-147.1l25.8-116.7h150.8l35.6-91.1L1618.7,1570.2L1618.7,1570.2z"/>
	<path fill="#D2AA41" fill-rule="evenodd" clip-rule="evenodd" d="M1133.9,1630.9l-97.3,473.9l-138.4-0.4l-7.1,34.1l152.9,0.5l104.4-508H1133.9z"/>
	<path fill="#AF5354" fill-rule="evenodd" clip-rule="evenodd" d="M539.6,2048.6h103l85.8-410.1h-13.5l-82.2,393L539.6,2048.6L539.6,2048.6z M902.9,2042h103l85.8-410.1h-13.5
		l-82.2,393L902.9,2042L902.9,2042z M1115.5,2042h103l85.8-410.1h-13.5l-82.1,393L1115.5,2042z M1570,2043.9h103l85.8-410.1h-13.5
		l-82.2,393L1570,2043.9z M1461.3,1619.5c0,0,84.2-5.7,87.5,72.2c3.3,77.9-70.3,115.8-94,117.7c35.2-20.8,85.8-70.2,85.8-115.8
		C1540.6,1648,1481.7,1621.4,1461.3,1619.5L1461.3,1619.5z M1367.3,2045.8h103l-58-173.7h-13.9l55.6,157.6L1367.3,2045.8z"/>
	<path fill-rule="evenodd" clip-rule="evenodd" d="M679.4,1406.9c6.5,0,10.9,0.6,13.4,1.7c2.4,1.1,3.3,3,2.6,5.7l-7,28c-1.3,5.2-7.4,7.8-18.2,7.8h-8.4l10.7-43.2
		L679.4,1406.9L679.4,1406.9L679.4,1406.9z M614.7,1491.4h36.5l7.3-29.5h14.3c9.6,0,18.2-0.7,25.9-2.2c7.7-1.5,13.7-3.7,18.2-6.6
		c4.5-2.8,7.2-6.2,8.1-10.1l6.7-26.8c1.1-4.5,0-8.4-3.4-11.7c-3.4-3.2-8.8-5.7-16.4-7.4c-7.5-1.7-16.9-2.5-28.1-2.5h-45
		L614.7,1491.4L614.7,1491.4z M865.1,1405.7c9.3,0,13.4,2,12.4,6.1l-15.2,61c-1.2,5-6,7.5-14.4,7.5c-4.9,0-8.2-0.7-10-2
		c-1.8-1.4-2.3-3.7-1.5-6.9l14.4-57.8C852.1,1408.3,856.9,1405.7,865.1,1405.7z M910.4,1404.1c-3-3.4-8-6-14.9-7.8
		c-6.9-1.8-15.4-2.7-25.5-2.7c-16.1,0-29.1,2.1-39,6.4c-9.8,4.3-15.7,10.3-17.7,18.1l-12.1,48.7c-1.3,5.4-0.6,10.1,2.2,13.9
		c2.8,3.9,7.7,6.7,14.6,8.7s15.6,2.9,26.2,2.9c9.2,0.1,18.4-0.8,27.5-2.7c8-1.8,14.4-4.4,19.2-7.8s7.8-7.5,9-12.1l13.3-53.3
		C914.4,1411.5,913.4,1407.5,910.4,1404.1L910.4,1404.1z M1042.9,1406.7c5.5,0,9.6,0.4,12.3,1.3c2.7,0.9,3.9,2.2,3.5,3.9l-4.3,17.1
		c-0.5,1.9-2.6,3.3-6.4,4c-3.8,0.8-10.7,1.1-20.7,1.2l6.8-27.5L1042.9,1406.7L1042.9,1406.7z M976.6,1491.4h36.4l11.3-45.3h6.6
		c5.7,0,10,0.6,13.2,2c3.1,1.3,4.4,3.1,3.8,5.3l-9.4,38h37.2l8.8-35.3c0.8-3,0.6-5.6-0.5-7.7c-1.1-2-3.5-3.7-7.1-5
		c-5-1.6-9.9-2.6-14.9-3.2l0.1-0.2c10-1,17.4-2.7,22.1-5.1c4.7-2.5,7.7-6.2,8.8-11l2.2-8.7c1.7-6.7-1.2-11.8-8.7-15.4
		c-7.5-3.6-19.1-5.3-34.9-5.3h-50.7L976.6,1491.4L976.6,1491.4z M1177,1394.5h87.5l-3.1,12.3H1236l-21,84.7h-37.2l21-84.7H1174
		L1177,1394.5z M1341.5,1394.5h36.8l-21.1,84.8h31.2l-3,12.1h-68L1341.5,1394.5z M1530.4,1425.8l1.2,41h-23.9l22.1-41H1530.4
		L1530.4,1425.8z M1458.4,1491.4h36.4l6.8-12.8h30.9l0.3,12.8h36l-14.2-97.9h-32.4L1458.4,1491.4L1458.4,1491.4z M1668.1,1394.5
		h23.7c5.6,8.4,11.1,17.1,16.6,26.1c1.9,3.2,3.7,6.3,5.4,9.3c1.7,2.9,3.3,5.8,4.7,8.5l3.9,8.4h0.6l13-52.4h33.9l-24.1,96.9h-24.3
		c-5.3-7.8-10.9-16.5-16.6-26c-3.4-5.8-6.7-11.6-10-17.5l-3.6-8h-0.6l-12.8,51.5H1644L1668.1,1394.5L1668.1,1394.5z M1894.4,1406.6
		c10.7,0,15.6,2.1,14.5,6.4l-15.2,60.9c-0.4,1.7-2.2,3.1-5.2,4.1c-3.1,1-6.8,1.6-11.4,1.6h-10.7l18.2-73H1894.4z M1826.4,1491.4
		h52.3c10.3,0,19.2-0.8,26.6-2.4c7.4-1.6,13.5-4,18-7.1c4.5-3.1,7.4-6.8,8.4-11.1l13.1-52.5c1.2-4.9,0.3-9.2-2.9-12.8
		c-3.1-3.6-8.3-6.4-15.6-8.3c-7.2-1.9-16.1-2.8-26.7-2.8h-49.1L1826.4,1491.4L1826.4,1491.4z M1631.3,939.7
		c0,204.5-156.9,368.4-369.5,368.4s-385-165.8-385-370.3s172.4-370.3,385-370.3C1474.5,567.6,1631.3,735.2,1631.3,939.7z"/>
	<path fill="#FFFFFF" fill-rule="evenodd" clip-rule="evenodd" d="M1548.1,802.9c7.7,0.2,15.8-0.4,24.3-1.9c-7.5-19.4-16.7-37.9-27.5-55.4C1546.5,763,1547.7,782.2,1548.1,802.9
		L1548.1,802.9z"/>
	<path fill="#D2AA41" fill-rule="evenodd" clip-rule="evenodd" d="M1547.8,843.3c-1.1,29.8-4,59.2-8.6,87.1c22.3,18.9,35.7,40.5,43.5,61.6c1.3,3.5,2.4,7,3.4,10.4
		c6-25.3,9.3-51.7,9.3-78.8c0-29.3-3.7-57.7-10.7-84.8C1572.4,842,1560.1,843.5,1547.8,843.3L1547.8,843.3z"/>
	<path fill="#FFFFFF" fill-rule="evenodd" clip-rule="evenodd" d="M1568.3,1014.4c-5.3-12.8-15.7-30.3-36.3-47.2c-8.7,38-20.7,73.3-35.9,106.1c8.6,9.6,16.1,21,22.4,34.4
		c3.2,6.7,5.9,13.6,8.2,20.6c20.1-26.5,36.3-55.9,48-87.7C1574.5,1036.7,1573.5,1027.1,1568.3,1014.4L1568.3,1014.4z"/>
	<path fill="#D2AA41" fill-rule="evenodd" clip-rule="evenodd" d="M1511.1,1147.3c-1.4-3.8-2.9-7.3-4.5-10.7c-5.6-11.7-13.7-23.8-25.4-34c-32.5,58.5-76.5,107.6-131.8,147.1
		C1412.8,1231.6,1468.7,1195.6,1511.1,1147.3L1511.1,1147.3z"/>
	<path fill-rule="evenodd" clip-rule="evenodd" d="M1440.7,748.5l2.9-8.8c0.1,0.1,1.1,1.8,2.9,4.4c15.7-12.7,33.3-31.5,52.7-57.1c-5.8-5.9-11.7-11.5-17.9-17
		c-29.9,38.9-70.3,59.5-93.4,93.7C1400.8,769,1418.7,764.8,1440.7,748.5L1440.7,748.5z"/>
	<path fill="#D2AA41" fill-rule="evenodd" clip-rule="evenodd" d="M1468.6,769.2c14.5,13.3,35.3,27,62.2,31.9c-0.8-29.5-3.3-58.7-7.5-86.6c-2.5-3.2-5.2-6.3-7.9-9.5
		C1503.2,734.6,1486.4,753.7,1468.6,769.2z"/>
	<path fill="#FFFFFF" fill-rule="evenodd" clip-rule="evenodd" d="M1322.5,869.9c0.3,0.6,0.6,1.2,1,1.8c96.4,0.5,159.1,19.6,199.3,46.4c4.4-26.3,6.8-52,7.7-76.3
		c-42.1-6.9-70.7-34.8-85.5-53.4c-8.1,6.3-16,12.6-23.5,19.5C1391.8,835.6,1363.5,847.4,1322.5,869.9z"/>
	<path fill="#D2AA41" fill-rule="evenodd" clip-rule="evenodd" d="M1328.3,940.9c0,19-3.3,60.8-14.7,117.7l-0.3,1.4c70.8-28.9,125.8-30,164.3-3c16.1-31.5,28.7-65.5,37.6-101.9
		c-45-28.5-124.8-51.4-265.6-40.6c-59.6,39.2-115,79.7-164.8,147.8C1148.5,1016.8,1294,1009.2,1328.3,940.9L1328.3,940.9z"/>
	<path fill="#FFFFFF" fill-rule="evenodd" clip-rule="evenodd" d="M1177.9,1177.1c-2.5,19.5,3.1,48.9,17.3,79.6c19.6,3.7,39.4,5.6,59.1,5.7c89.4-40,158.5-98.8,205.4-173.8
		c-33.1-15.6-84.8-16.5-165,20.3c-13.3,18.7-34.8,30.8-72.5,39.3C1207.4,1157.4,1192.6,1167,1177.9,1177.1z"/>
	<path fill-rule="evenodd" clip-rule="evenodd" d="M1322.5,869.9c41.1-22.5,69.3-34.3,99-62c7.7-7,15.6-13.5,23.5-19.5c7.9-6.1,15.8-12.5,23.6-19.2
		c17.8-15.6,34.6-34.6,46.8-64.2c7.5-18,12.9-40.1,15.7-64.2c-10.4,16.3-21.1,31.7-32,46.2c-19.4,25.6-37,44.3-52.7,57.1
		c-1.9,1.6-3.9,3-5.8,4.4c-22,16.3-39.9,20.6-52.8,15.2c23.1-34.1,63.4-54.8,93.4-93.7c35.3-45.8,56.1-116.7,17.2-264.6
		c-3,70-49.2,140.3-110.6,205.6c-20.3,21.6-42.3,42.7-64.9,63c-94.5,84.8-200.2,156.6-243.5,201.1c-8.7-117.5,111.6-162,173-257.8
		c6.2-9.5,12-20.3,17.3-32.4c8-18.5,13.7-38.9,16.2-61.9c3.3-174.7-42.5-136.7-42.5-136.7s19.6,49.4-21.2,98.7
		c-40.9,49.4-179.7,186.6-197.8,224.1c-28.8,59.4-8.3,152.4,27.6,201.8c-22.2,37-34.2,48.8-42.3,105.8c-6.1,42.4-1,89,10.7,109.7
		c4.1,7.3,9.1,11.2,14.3,10.9c-3.1,12.3-3.2,27,0.7,42.1c11.4,44.2,57.6,91.8,167.3,91.8c-2.6-4.9-5-9.7-7.2-14.5
		c-14.2-30.7-19.8-60.1-17.3-79.6c1.7-13.4,7.2-22.2,16.3-23.6c10.2-1.6,19.5-3.3,28-5.2c37.7-8.5,59.1-20.6,72.5-39.3
		c9.2-12.9,14.5-28.9,18.7-49l0.3-1.4c11.4-57,14.7-98.7,14.7-117.7c-34.3,68.4-179.8,75.9-243.6,121.5
		c49.8-68.1,105.3-108.6,164.8-147.8c7-4.6,13.9-9.1,20.9-13.7C1287.7,889.8,1305.1,879.4,1322.5,869.9L1322.5,869.9z"/>
	<path fill-rule="evenodd" clip-rule="evenodd" d="M1380.9,349.7c21,29.3,58.4,75.9,53.5,132.9c0,11.4-0.7,43.1-24.5,67.3c-74.4,75.6-165.2,150.5-243.7,184.7
		c14.7,0,173.8-170.4,168.8-250.2c-4.9-57-78.1-89.7-63.4-146.7c19.6-68.4,90.6-113.9,124.8-132.9
		C1353.4,280.7,1356.4,315.5,1380.9,349.7L1380.9,349.7z"/>
	<path fill="#AF5354" fill-rule="evenodd" clip-rule="evenodd" d="M1016.6,886.6c-36.1-55.8-34.4-129.6-34.3-159.5c-36.4,54-63.8,126.4-63.8,196.5c0,90.8,35.7,173.2,93.8,234
		c-13-33.4-34.9-83.2-34.9-157.1C977.3,960.6,992,915.1,1016.6,886.6L1016.6,886.6z M1379.6,323.8c21,29.3,58.4,75.9,53.5,132.9
		c0,11.4-0.8,43.1-24.5,67.3c-74.4,75.6-165.2,150.5-243.7,184.6c14.7,0,137.1-144.6,132.2-224.3c-4.9-57-41.5-115.6-26.7-172.6
		c19.6-68.4,90.6-113.9,124.8-132.9C1352.1,254.8,1355.1,289.7,1379.6,323.8L1379.6,323.8z"/>
	<path fill="#AF5354" fill-rule="evenodd" clip-rule="evenodd" d="M1235.7,362.5c0,0,19.6,49.4-21.3,98.7c-40.9,49.4-179.7,186.6-197.8,224.1c-28.8,59.5-8.3,152.4,27.6,201.8
		c-22.2,37-34.2,48.8-42.3,105.8c-8.2,57,3.7,121.7,25,120.6c-12.1,48.2,20.8,133.8,168,133.8c-31.1-57-32.7-113.9-8.2-117.7
		c87.7-13.6,107.9-38,119.3-94.9c11.5-57,14.7-98.7,14.7-117.7c-34.3,68.4-179.9,75.9-243.6,121.5
		c55.6-75.9,118.2-117.6,185.7-161.5c72.4-47,110.2-55,151.1-93c40.9-38,96.4-57,109.5-167.1C1458,719.5,1408,751.2,1380.2,739.8
		c50.3-74.3,182.4-84.9,110.5-358.3c-8.2,189.9-334,382.4-419,469.7c-11.1-150.2,188.5-181.1,206.5-352
		C1281.4,324.5,1235.7,362.5,1235.7,362.5L1235.7,362.5z"/>
</g>
</svg>
